<?xml version="1.0" standalone="no"?>
<!DOCTYPE svg PUBLIC "-//W3C//DTD SVG 20010904//EN"
 "http://www.w3.org/TR/2001/REC-SVG-20010904/DTD/svg10.dtd">
<svg version="1.0" xmlns="http://www.w3.org/2000/svg"
 width="128.000000pt" height="128.000000pt" viewBox="0 0 128.000000 128.000000"
 preserveAspectRatio="xMidYMid meet">
<metadata>
Created by potrace 1.14, written by Peter Selinger 2001-2017
</metadata>
<g transform="translate(0.000000,128.000000) scale(0.100000,-0.100000)"
fill="#000000" stroke="none">
<path d="M0 640 l0 -640 640 0 640 0 0 640 0 640 -640 0 -640 0 0 -640z m713
154 c32 -6 37 -10 31 -27 -6 -18 -3 -19 37 -13 30 4 53 1 73 -9 15 -8 32 -13
36 -10 13 8 20 -9 11 -24 -6 -10 -17 -10 -47 -2 -21 6 -40 9 -42 6 -2 -2 14
-9 36 -15 24 -6 43 -18 46 -28 19 -70 20 -69 -16 -30 -28 32 -129 84 -113 59
2 -5 -2 -12 -11 -15 -8 -3 -12 -2 -9 4 3 6 0 10 -7 10 -10 0 -9 3 2 11 13 9
13 10 0 6 -8 -2 -15 -13 -14 -25 0 -19 -1 -19 -20 -6 -11 8 -25 14 -31 14 -5
0 -2 -5 7 -11 12 -7 17 -22 16 -53 0 -23 5 -52 11 -64 13 -25 61 -52 88 -51
10 0 3 5 -15 10 -20 6 -40 22 -52 42 -26 41 -25 49 5 81 39 42 80 36 132 -20
42 -44 43 -47 29 -69 -12 -18 -12 -25 -3 -28 8 -3 6 -10 -8 -22 -17 -14 -17
-16 -2 -11 22 7 22 5 -10 -61 -34 -69 -101 -145 -147 -167 -20 -9 -59 -16 -94
-16 -57 0 -62 2 -113 48 -62 56 -114 158 -124 243 -6 52 -5 53 11 32 25 -35
36 -27 14 10 -23 37 -25 48 -7 41 7 -2 23 9 36 26 43 59 105 59 136 1 20 -40
20 -44 -14 -80 -32 -34 -28 -41 7 -11 19 15 52 76 52 95 0 13 -19 3 -22 -11
-2 -10 -7 -5 -15 15 -6 17 -8 29 -3 26 4 -3 11 3 14 12 4 10 4 14 0 10 -4 -4
-13 -2 -21 4 -9 9 -13 8 -13 0 0 -6 -7 -11 -16 -11 -8 0 -12 5 -9 10 8 13 5
13 -36 -1 -19 -7 -49 -26 -67 -43 l-33 -31 7 30 c4 17 11 36 17 43 15 19 -4
14 -20 -5 -14 -17 -14 -17 -7 2 3 11 6 27 6 36 0 9 11 22 25 28 22 10 24 10
16 -1 -9 -10 3 -13 63 -13 71 0 95 11 57 26 -23 9 88 11 140 3z m-359 -110 c9
-3 16 -16 16 -27 l0 -21 -20 22 c-28 30 -27 38 4 26z m571 -4 c3 -5 2 -10 -4
-10 -5 0 -13 5 -16 10 -3 6 -2 10 4 10 5 0 13 -4 16 -10z m-569 -93 c3 -18 7
-37 9 -44 2 -7 -1 -15 -7 -19 -6 -4 -8 -3 -5 3 4 6 0 13 -8 17 -11 4 -15 20
-15 58 1 43 3 49 11 35 6 -11 13 -33 15 -50z m624 45 c0 -4 -9 -13 -20 -20
-16 -10 -20 -10 -20 1 0 8 3 17 7 20 9 9 33 9 33 -1z m-10 -87 c-7 -25 -19
-45 -26 -45 -16 0 -17 4 -5 28 5 9 14 30 20 46 18 43 25 23 11 -29z"/>
<path d="M468 733 c12 -2 30 -2 40 0 9 3 -1 5 -23 4 -22 0 -30 -2 -17 -4z"/>
<path d="M610 690 c-24 -15 -7 -18 25 -4 23 10 25 13 10 13 -11 1 -27 -3 -35
-9z"/>
<path d="M490 675 c-23 -28 -8 -50 35 -50 30 0 41 4 43 18 5 25 -16 47 -43 47
-12 0 -28 -7 -35 -15z m25 -5 c3 -5 1 -10 -4 -10 -6 0 -11 5 -11 10 0 6 2 10
4 10 3 0 8 -4 11 -10z"/>
<path d="M751 651 c-18 -33 -3 -51 41 -51 38 0 39 1 36 33 -3 28 -7 32 -35 35
-23 2 -34 -2 -42 -17z m29 -1 c0 -5 -5 -10 -11 -10 -5 0 -7 5 -4 10 3 6 8 10
11 10 2 0 4 -4 4 -10z"/>
<path d="M840 530 c-23 -7 -23 -8 -3 -9 12 -1 25 4 28 9 3 6 5 10 3 9 -2 -1
-14 -5 -28 -9z"/>
<path d="M600 506 c0 -13 -11 -16 -52 -16 -65 0 -93 -15 -64 -33 11 -7 34 -26
50 -43 41 -42 62 -51 121 -52 39 0 57 5 85 26 19 15 44 29 55 32 52 14 0 60
-69 60 -29 0 -37 3 -33 14 5 12 -1 13 -29 9 -20 -3 -40 -1 -49 7 -12 10 -15
10 -15 -4z m-10 -70 c0 -3 -4 -8 -10 -11 -5 -3 -10 -1 -10 4 0 6 5 11 10 11 6
0 10 -2 10 -4z"/>
<path d="M576 350 c12 -12 27 -21 33 -19 7 3 -3 13 -21 23 l-33 19 21 -23z"/>
<path d="M690 347 c-40 -19 -42 -22 -21 -25 16 -3 33 5 50 22 30 31 29 31 -29
3z"/>
<path d="M638 303 c6 -2 18 -2 25 0 6 3 1 5 -13 5 -14 0 -19 -2 -12 -5z"/>
</g>
</svg>
